<svg width="145" height="145" viewBox="0 0 145 145" fill="none" xmlns="http://www.w3.org/2000/svg">
<path d="M10 10H25V25H10V10Z" fill="black"/>
<path fill-rule="evenodd" clip-rule="evenodd" d="M0 0V35H35V0H0ZM30 30V5H5V30H30Z" fill="black"/>
<path d="M130 55V60H125V55H130Z" fill="black"/>
<path d="M110 85H105V80H110V85Z" fill="black"/>
<path d="M100 100H95V95H100V100Z" fill="black"/>
<path d="M95 85H100V90H95V85Z" fill="black"/>
<path d="M95 85V75H90V85H95Z" fill="black"/>
<path d="M115 110H110V115H115V110Z" fill="black"/>
<path fill-rule="evenodd" clip-rule="evenodd" d="M40 0V15H50V20H45V25H40V45H45V60H50V65H45V70H40V60H25V65H15V60H20V55H5V50H10V45H15V50H20V45H25V40H10V45H5V50H0V55H5V60H10V80H5V70H0V105H5V85H10V80H15V95H10V105H15V95H25V90H20V85H25V80H20V70H25V65H35V70H30V75H35V70H40V80H30V85H35V90H30V95H35V100H20V105H35V100H40V95H45V90H40V85H45V75H65V70H60V65H55V60H60V55H65V65H70V70H75V60H80V55H85V65H80V75H75V80H65V85H60V80H50V85H55V90H50V95H60V100H65V105H55V100H50V110H45V105H40V110H45V120H40V135H45V125H50V110H55V120H60V125H55V130H50V140H55V145H65V140H70V145H75V130H80V125H70V130H65V115H60V110H65V105H70V115H75V120H85V105H90V125H95V130H85V145H90V135H95V140H105V145H115V140H110V135H120V145H135V140H140V130H135V125H145V120H130V115H125V110H130V105H135V115H140V110H145V100H140V95H135V100H130V90H125V85H135V90H145V75H135V80H130V75H120V70H130V65H135V70H145V60H140V55H135V50H130V45H140V50H145V40H130V45H120V40H105V45H95V30H90V15H80V5H85V0H80V5H75V15H80V25H85V30H80V40H75V45H70V35H75V30H70V25H75V20H70V25H60V15H55V10H65V5H55V10H50V0H40ZM65 35V30H70V35H65ZM60 35H65V45H70V55H65V50H60V55H55V60H50V45H60V35ZM55 30H60V35H55V30ZM50 30V25H55V30H50ZM50 30V40H45V30H50ZM70 55V60H75V55H70ZM85 45V30H90V45H85ZM85 50V55H95V60H100V50H85ZM85 50V45H80V50H85ZM105 45V50H110V45H105ZM120 50V45H115V50H120ZM120 65H130V60H135V55H130V50H120V65ZM115 65H120V70H115V65ZM115 65H110V60H115V65ZM100 70H95V65H85V70H90V75H85V80H80V85H85V90H95V95H90V100H95V110H100V100H110V85H115V90H120V95H115V100H120V95H125V90H120V85H125V80H120V75H115V70H110V75H100V70ZM100 70V65H105V70H100ZM135 80V85H140V80H135ZM130 100V105H125V100H130ZM130 140H135V135H130V130H125V125H120V130H125V135H130V140ZM95 125V120H100V125H95ZM70 95V105H85V95H80V100H75V95H70ZM70 95V90H65V95H70ZM75 115H80V110H75V115ZM60 135H65V140H60V135ZM60 135V130H55V135H60ZM40 90H35V95H40V90ZM115 130H110V125H115V130ZM120 120V105H105V120H120Z" fill="black"/>
<path d="M90 0H105V20H100V5H95V10H90V0Z" fill="black"/>
<path d="M100 25H95V20H100V25Z" fill="black"/>
<path d="M100 25H105V35H100V25Z" fill="black"/>
<path d="M120 10H135V25H120V10Z" fill="black"/>
<path fill-rule="evenodd" clip-rule="evenodd" d="M110 0V35H145V0H110ZM140 30V5H115V30H140Z" fill="black"/>
<path d="M35 40H30V45H35V40Z" fill="black"/>
<path d="M25 50H35V55H25V50Z" fill="black"/>
<path d="M10 120V135H25V120H10Z" fill="black"/>
<path fill-rule="evenodd" clip-rule="evenodd" d="M0 110V145H35V110H0ZM30 140V115H5V140H30Z" fill="black"/>
</svg>
