<svg width="145" height="145" viewBox="0 0 145 145" fill="none" xmlns="http://www.w3.org/2000/svg">
<path d="M10 10V25H25V10H10Z" fill="black"/>
<path fill-rule="evenodd" clip-rule="evenodd" d="M0 0V35H35V0H0ZM30 30V5H5V30H30Z" fill="black"/>
<path d="M75 90V80H55V85H50V90H55V95H65V90H60V85H70V90H75Z" fill="black"/>
<path d="M80 90H75V95H70V105H75V100H90V95H95V90H90V95H80V90Z" fill="black"/>
<path d="M85 80H80V90H85V80Z" fill="black"/>
<path d="M105 85V90H115V85H105Z" fill="black"/>
<path d="M105 85H90V80H85V75H95V80H105V85Z" fill="black"/>
<path fill-rule="evenodd" clip-rule="evenodd" d="M115 65H110V70H105V65H100V75H110V80H120V75H125V80H130V75H125V65H120V60H115V65ZM115 65H120V75H115V65Z" fill="black"/>
<path d="M130 65H135V70H130V65Z" fill="black"/>
<path d="M40 50H45V45H40V50Z" fill="black"/>
<path d="M40 50V55H30V50H40Z" fill="black"/>
<path d="M50 65V70H60V75H65V70H60V65H50Z" fill="black"/>
<path d="M110 110H115V115H110V110Z" fill="black"/>
<path fill-rule="evenodd" clip-rule="evenodd" d="M50 0H45V5H40V10H45V20H50V15H55V25H50V40H45V25H40V40H20V50H15V45H10V50H15V60H30V65H25V70H30V75H25V80H15V65H10V55H5V50H0V60H5V65H10V70H0V90H5V85H10V80H15V90H10V100H0V105H10V100H15V105H20V95H25V100H30V105H35V100H30V95H40V90H45V95H50V100H45V105H40V125H45V135H50V130H65V140H60V135H55V140H45V145H70V140H75V135H80V130H85V135H90V140H80V145H105V140H110V145H115V140H120V145H125V140H130V135H135V145H140V140H145V130H140V125H145V105H140V100H135V105H130V90H135V85H140V95H145V80H140V75H145V45H140V40H135V45H130V55H125V45H120V40H110V45H105V40H95V45H85V55H95V45H105V50H100V60H95V65H90V60H85V65H80V60H75V55H80V45H75V55H70V45H65V25H75V20H80V25H85V30H80V35H75V30H70V40H85V30H90V35H95V30H100V35H105V30H100V25H105V0H90V10H85V5H80V10H85V15H90V20H80V15H75V5H70V10H65V0H55V5H50V0ZM60 10H55V5H60V10ZM60 10V20H65V10H60ZM90 20H100V25H95V30H90V20ZM75 15V20H70V15H75ZM55 45V50H60V55H65V45H55ZM50 45H55V40H60V30H55V40H50V45ZM70 65H65V60H50V45H45V40H40V45H30V50H25V55H30V60H35V65H30V70H40V65H45V80H40V85H45V90H50V95H55V105H45V110H50V115H45V125H50V120H55V125H60V115H55V105H60V100H65V110H70V120H65V125H80V120H75V110H80V105H85V125H90V135H95V140H100V135H95V130H110V135H120V140H125V135H130V130H135V125H140V115H135V110H140V105H135V110H130V105H125V115H130V120H125V125H120V130H115V125H90V120H95V105H100V90H105V100H115V95H120V100H125V95H120V85H135V75H140V60H135V55H140V50H135V55H130V65H125V60H120V45H115V50H110V60H100V65H95V70H90V65H85V75H80V80H75V70H70V65ZM70 65H75V60H70V65ZM75 135H70V130H75V135ZM30 90H25V95H30V90ZM30 90V85H35V90H30ZM10 80V75H5V80H10ZM30 75H35V80H30V75ZM50 5V10H45V5H50ZM120 120V105H105V120H120Z" fill="black"/>
<path d="M120 10V25H135V10H120Z" fill="black"/>
<path fill-rule="evenodd" clip-rule="evenodd" d="M110 0V35H145V0H110ZM140 30V5H115V30H140Z" fill="black"/>
<path d="M10 120V135H25V120H10Z" fill="black"/>
<path fill-rule="evenodd" clip-rule="evenodd" d="M0 110H35V145H0V110ZM30 140V115H5V140H30Z" fill="black"/>
</svg>
