<svg width="145" height="145" viewBox="0 0 145 145" fill="currentColor" xmlns="http://www.w3.org/2000/svg">
<path d="M10 10V25H25V10H10Z"/>
<path fill-rule="evenodd" clip-rule="evenodd" d="M0 0V35H35V0H0ZM30 30V5H5V30H30Z"/>
<path d="M75 30V35H70V30H75Z"/>
<path d="M80 30H85V35H80V30Z"/>
<path d="M35 60H30V65H35V60Z"/>
<path d="M45 50V45H50V50H45Z"/>
<path d="M110 80V75H115V80H110Z"/>
<path d="M110 80V85H105V80H110Z"/>
<path d="M90 95H95V100H90V95Z"/>
<path d="M90 95V90H80V100H85V95H90Z"/>
<path d="M70 100H75V95H70V100Z"/>
<path d="M85 65H90V60H95V55H85V65Z"/>
<path d="M85 65V70H80V65H85Z"/>
<path d="M70 70V65H65V70H70Z"/>
<path d="M115 110H110V115H115V110Z"/>
<path fill-rule="evenodd" clip-rule="evenodd" d="M45 0H40V15H45V20H55V25H40V45H35V40H30V45H25V40H10V45H5V50H10V55H5V60H10V65H0V80H10V85H0V105H5V90H10V95H15V100H25V95H40V90H45V95H55V100H50V105H45V100H40V110H50V105H55V110H65V105H70V110H75V115H70V120H75V135H70V130H55V125H50V130H45V120H40V135H50V145H65V140H70V145H95V140H90V135H100V140H110V145H115V140H110V135H120V145H135V140H140V130H135V125H145V120H130V115H125V110H130V105H135V115H140V110H145V105H135V100H130V90H125V85H135V90H145V75H135V80H130V75H120V70H130V65H135V70H145V60H140V55H135V50H130V45H140V50H145V40H130V45H120V40H100V45H85V40H95V30H90V15H75V10H85V0H80V5H75V0H65V15H60V5H55V0H50V5H45V0ZM55 15H60V20H55V15ZM55 15H50V10H55V15ZM75 5H70V10H75V5ZM75 30V15H70V25H65V35H60V30H55V35H50V30H45V35H50V40H45V45H40V50H35V45H30V50H35V55H25V50H20V55H15V60H20V65H30V70H35V65H40V70H45V65H40V60H35V55H40V50H45V60H50V65H55V50H60V45H55V35H60V40H75V35H80V40H85V35H90V30H85V25H80V30H75ZM120 50H130V55H125V60H130V65H120V50ZM115 65H120V70H115V65ZM115 65V60H110V65H115ZM115 75V70H110V75H100V70H105V65H100V70H90V65H95V60H105V55H100V50H85V55H80V45H75V50H70V45H65V50H70V55H75V60H80V65H70V60H65V55H60V75H70V70H80V75H95V85H90V80H80V90H75V80H65V85H70V90H65V95H60V90H55V95H60V100H55V105H60V100H70V105H90V110H80V120H85V125H90V130H85V135H90V130H95V125H100V120H90V110H100V105H95V100H100V90H95V85H105V100H110V85H115V90H120V95H115V100H120V95H125V90H120V85H125V80H120V75H115ZM120 50H115V45H120V50ZM130 60V55H135V60H130ZM135 80V85H140V80H135ZM130 100H125V105H130V100ZM130 140H135V135H130V130H125V125H120V130H125V135H130V140ZM75 135H80V140H75V135ZM20 90V95H25V90H35V85H45V80H35V75H20V70H15V65H10V70H15V80H35V85H25V90H20ZM20 90V85H15V90H20ZM10 50V45H15V50H10ZM115 130H110V125H115V130ZM120 120V105H105V120H120ZM110 45V50H105V45H110Z"/>
<path d="M90 0H95V10H90V0Z"/>
<path d="M120 10H135V25H120V10Z"/>
<path fill-rule="evenodd" clip-rule="evenodd" d="M110 0V35H145V0H110ZM140 30V5H115V30H140Z"/>
<path d="M100 10H105V20H100V10Z"/>
<path d="M100 25H95V20H100V25Z"/>
<path d="M100 25H105V35H100V25Z"/>
<path d="M145 95H140V100H145V95Z"/>
<path d="M35 100H30V105H35V100Z"/>
<path d="M10 120V135H25V120H10Z"/>
<path fill-rule="evenodd" clip-rule="evenodd" d="M0 110H35V145H0V110ZM30 140H5V115H30V140Z"/>
<path d="M55 115H60V120H55V115Z"/>
<path d="M60 120H65V125H60V120Z"/>
</svg>
